<svg xmlns="http://www.w3.org/2000/svg" viewBox="0 0 87 60" width="87" height="60">
	<style>
		tspan { white-space:pre }
		.shp0 { fill: #f5c506 } 
	</style>
	<g id="icon_area">
		<path id="Shape 2" class="shp0" d="M64.68 59.22L19.07 59.22C8.69 59.22 0.29 50.92 0.29 40.67C0.29 32.26 5.99 25.24 13.77 22.97C13.75 22.68 13.7 22.41 13.7 22.13C13.7 14.81 19.71 8.88 27.12 8.88C28.6 8.88 30 9.17 31.34 9.61C35.24 4.37 41.49 0.93 48.58 0.93C58.78 0.93 67.29 7.97 69.47 17.4C79.01 19.55 86.14 27.95 86.14 38.02C86.14 49.73 76.53 59.22 64.68 59.22ZM48.58 38.02L48.58 22.13L37.85 22.13L37.85 38.02L29.63 38.02L43.22 51.44L56.8 38.02L48.58 38.02Z" />
	</g>
</svg>