<svg xmlns="http://www.w3.org/2000/svg" viewBox="0 0 13 13" width="13" height="13">
	<style>
		tspan { white-space:pre }
		.shp0 { fill: #f5c506 } 
	</style>
	<g id="bnner+header">
		<g id="player">
			<path id="Shape 9" class="shp0" d="M8.2 7.14L8.2 6.39L12.63 6.39L12.63 7.14L8.2 7.14ZM8.05 4.94L12.05 3.02L12.38 3.7L8.38 5.62L8.05 4.94ZM7.71 3.25L10.46 0.86L10.87 1.32L8.12 3.72L7.71 3.25ZM3.38 9.01L3.38 7L3.38 6.53L3.38 4.52C4.52 3.48 5.91 2.95 6.86 1.79L6.86 6.53L6.86 7L6.86 11.74C5.91 10.58 4.52 10.05 3.38 9.01ZM0.82 4.53L3.11 4.53L3.11 8.97L0.82 8.97L0.82 4.53ZM10.87 12.21L10.46 12.67L7.71 10.28L8.12 9.81L10.87 12.21ZM8.23 7.95L12.22 9.86L11.9 10.55L7.9 8.63L8.23 7.95Z" />
		</g>
	</g>
</svg>